# xmcd
#
# Track frame offsets:
#	150
#	24963
#	51874
#	66642
#	89533
#	113609
#	135461
#	159907
#	185080
#	211969
#	231643
#	254802
#	281313
#
# Disc length: 4087 seconds
#
# Revision: 1
# Processed by: cddbd v1.5.1PL0 Copyright (c) Steve Scherf et al.
# Submitted via: CDex 1.50Beta5
#
DISCID=bf0ff50d
DTITLE=Ayumi Hamasaki - A Ballade
DYEAR=1900
DGENRE=
TTITLE0=RAINBOW
TTITLE1=appears "HAL'S Progress"
TTITLE2=YOU "nothen breeze"
TTITLE3=TO BE "2003 ReBirth Mix"
TTITLE4=HANABI
TTITLE5=M " HAL'S Progress"
TTITLE6=Dearest
TTITLE7=Dolls
TTITLE8=SEASONS "2003 ReBirth Mix"
TTITLE9=Voyage
TTITLE10=A Song for xx "030213 Session #2
TTITLE11=Who ... "Acriss the Universe"
TTITLE12=卒業写真
EXTD=
EXTT0=
EXTT1=
EXTT2=
EXTT3=
EXTT4=
EXTT5=
EXTT6=
EXTT7=
EXTT8=
EXTT9=
EXTT10=
EXTT11=
EXTT12=
PLAYORDER=
